<svg width="31" height="31" viewBox="0 0 31 31" fill="none" xmlns="http://www.w3.org/2000/svg">
<path d="M15.5001 0.916504C23.5647 0.916504 30.0834 7.43525 30.0834 15.4998C30.0834 23.5644 23.5647 30.0832 15.5001 30.0832C7.4355 30.0832 0.916748 23.5644 0.916748 15.4998C0.916748 7.43525 7.4355 0.916504 15.5001 0.916504ZM22.7917 8.20817H19.1459L17.6876 6.74984H13.3126L11.8542 8.20817H8.20841V11.1248H22.7917V8.20817ZM11.1251 24.2498H19.8751C20.2619 24.2498 20.6328 24.0962 20.9063 23.8227C21.1798 23.5492 21.3334 23.1783 21.3334 22.7915V12.5832H9.66675V22.7915C9.66675 23.1783 9.82039 23.5492 10.0939 23.8227C10.3674 24.0962 10.7383 24.2498 11.1251 24.2498Z" fill="#4A4B4B"/>
</svg>
